<?xml version="1.0" encoding="UTF-8"?>
<svg id="Layer_2" data-name="Layer 2" xmlns="http://www.w3.org/2000/svg" viewBox="0 0 859.43 316.37">
  <defs>
    <style>
      .cls-1 {
        font-family: Chinchilla-Black, Chinchilla;
        font-size: 190px;
        font-weight: 800;
      }
    </style>
  </defs>
  <g id="Layer_21" data-name="Layer 21">
    <text class="cls-1" transform="translate(213.31 207.27)"><tspan x="0" y="0">start!</tspan></text>
    <path d="M491.87,6.76c-59.25-2.71-118.89-3.37-177.83,4.13-28.88,3.67-57.54,9.16-85.47,17.43-27.24,8.07-54.9,18.3-79.35,32.95-22.96,13.76-43.69,34.08-50.31,60.83-6.56,26.49,3.91,51.94,20.29,72.53s38.04,37.17,59.88,51.47c22.08,14.46,45.79,26.25,70.34,35.89,50.18,19.7,103.93,29.66,157.61,33.04,58.41,3.67,117.67-.11,174.94-12.36,29.18-6.24,57.89-14.82,85.57-25.98,24.29-9.79,48.1-21.22,68.4-38,20.06-16.59,36.29-39.71,39.14-66.12,3.08-28.56-14.33-53.4-35.15-71.08-21.8-18.51-47.94-32.15-74.01-43.58-25.53-11.19-52.03-20.02-79.21-26.18-54.46-12.34-111-14.34-166.17-5.75-13.47,2.1-26.82,4.87-40.02,8.26-8.72,2.23-5.03,15.74,3.72,13.5,102.82-26.35,215.18-12.4,308.21,38.84,22.98,12.66,47.06,27.99,60.75,51.12,6.58,11.12,9.68,23.66,7.63,36.54-2.01,12.62-7.86,24.47-15.43,34.66-14.17,19.09-34.98,32.41-55.96,42.88-24.67,12.31-50.98,21.62-77.49,29.08-54.69,15.4-111.57,21.84-168.32,21.45-51.32-.36-102.75-6.46-152.13-20.78s-93.88-35.68-132.54-67.38c-18.8-15.41-38.18-34.02-45.46-57.94-7.39-24.27,2.37-48.27,19.89-65.52,19.15-18.85,45.44-30.01,70.25-39.29,26.09-9.76,53.13-16.85,80.52-21.86,54.8-10.02,110.84-11.57,166.41-10.25,13.77.33,27.54.85,41.31,1.48,9.01.41,8.99-13.59,0-14h0Z"/>
  </g>
</svg>