<?xml version="1.0" encoding="UTF-8"?>
<svg id="Layer_2" data-name="Layer 2" xmlns="http://www.w3.org/2000/svg" viewBox="0 0 954.7 379.48">
  <defs>
    <style>
      .cls-1 {
        font-family: Chinchilla-Black, Chinchilla;
        font-size: 190px;
        font-weight: 800;
      }
    </style>
  </defs>
  <g id="chinchilla">
    <text class="cls-1" transform="translate(163.71 297.99)"><tspan x="0" y="0">Zelfbeeld</tspan></text>
    <path d="M737.68,129.18c20.36-30.43,40.72-60.85,61.08-91.28,3.59-5.36-5.07-10.38-8.63-5.05-20.36,30.43-40.72,60.85-61.08,91.28-3.59,5.36,5.07,10.38,8.63,5.05h0Z"/>
    <path d="M835.8,214.5c38.16-2.82,76.23-6.75,114.16-11.78,6.29-.83,6.37-10.84,0-10-37.93,5.03-76,8.96-114.16,11.78-6.38.47-6.43,10.48,0,10h0Z"/>
    <path d="M137.46,149.35c-23.92-24.11-48.56-47.5-73.87-70.14-4.78-4.28-11.88,2.77-7.07,7.07,25.32,22.64,49.95,46.03,73.87,70.14,4.54,4.57,11.61-2.5,7.07-7.07h0Z"/>
    <path d="M95.91,262.84c-31.16,1.2-62.12,5.65-92.35,13.28-6.24,1.58-3.59,11.22,2.66,9.64,29.4-7.43,59.39-11.76,89.69-12.93,6.41-.25,6.45-10.25,0-10h0Z"/>
    <path d="M442.39,80.02c-5.77-25.75-12.5-51.27-20.17-76.52-1.87-6.14-11.52-3.52-9.64,2.66,7.67,25.25,14.4,50.77,20.17,76.52,1.41,6.28,11.05,3.62,9.64-2.66h0Z"/>
  </g>
</svg>